<svg width="40" height="41" viewBox="0 0 40 41" fill="none" xmlns="http://www.w3.org/2000/svg">
  <path d="M19.8152 40.1732H19.7282C8.85018 40.1732 0 31.3204 0 20.4392V20.3522C0 9.47097 8.85018 0.618164 19.7282 0.618164H19.8152C30.6932 0.618164 39.5434 9.47097 39.5434 20.3522V20.4392C39.5434 31.3204 30.6932 40.1732 19.8152 40.1732ZM19.7282 1.95706C9.58769 1.95706 1.3385 10.2087 1.3385 20.3522V20.4392C1.3385 30.5827 9.58769 38.8343 19.7282 38.8343H19.8152C29.9557 38.8343 38.2049 30.5827 38.2049 20.4392V20.3522C38.2049 10.2087 29.9557 1.95706 19.8152 1.95706H19.7282Z" fill="black"/>
  <path d="M22.4316 15.9606V20.1232H27.5795L26.7643 25.7305H22.4316V38.6495C21.5629 38.77 20.6741 38.833 19.772 38.833C18.7306 38.833 17.708 38.75 16.7121 38.5893V25.7305H11.9645V20.1232H16.7121V15.0301C16.7121 11.8703 19.2727 9.30762 22.4329 9.30762V9.3103C22.4423 9.3103 22.4503 9.30762 22.4597 9.30762H27.5808V14.1571H24.2345C23.24 14.1571 22.4329 14.9644 22.4329 15.9592L22.4316 15.9606Z" fill="black"/>
</svg>