<svg width="40" height="41" viewBox="0 0 40 41" fill="none" xmlns="http://www.w3.org/2000/svg">
    <path
        d="M19.8152 40.1732H19.7282C8.85018 40.1732 0 31.3204 0 20.4392V20.3521C0 9.47094 8.85018 0.618164 19.7282 0.618164H19.8152C30.6932 0.618164 39.5434 9.47094 39.5434 20.3521V20.4392C39.5434 31.3204 30.6932 40.1732 19.8152 40.1732ZM19.7282 1.95706C9.5877 1.95706 1.3385 10.2087 1.3385 20.3521V20.4392C1.3385 30.5827 9.5877 38.8343 19.7282 38.8343H19.8152C29.9557 38.8343 38.2049 30.5827 38.2049 20.4392V20.3521C38.2049 10.2087 29.9557 1.95706 19.8152 1.95706H19.7282Z"
        fill="black" />
    <path
        d="M25.6836 9.0625H13.862C10.596 9.0625 7.93909 11.7202 7.93909 14.9871V25.8054C7.93909 29.0723 10.596 31.73 13.862 31.73H25.6836C28.9496 31.73 31.6065 29.0723 31.6065 25.8054V14.9871C31.6065 11.7202 28.9496 9.0625 25.6836 9.0625ZM10.0285 14.9871C10.0285 12.873 11.7485 11.1525 13.862 11.1525H25.6836C27.7971 11.1525 29.5171 12.873 29.5171 14.9871V25.8054C29.5171 27.9195 27.7971 29.64 25.6836 29.64H13.862C11.7485 29.64 10.0285 27.9195 10.0285 25.8054V14.9871Z"
        fill="black" />
    <path
        d="M19.773 25.9061C22.81 25.9061 25.2822 23.4345 25.2822 20.3952C25.2822 17.3559 22.8114 14.8843 19.773 14.8843C16.7346 14.8843 14.2637 17.3559 14.2637 20.3952C14.2637 23.4345 16.7346 25.9061 19.773 25.9061ZM19.773 16.9756C21.6589 16.9756 23.1928 18.51 23.1928 20.3965C23.1928 22.283 21.6589 23.8174 19.773 23.8174C17.887 23.8174 16.3531 22.283 16.3531 20.3965C16.3531 18.51 17.887 16.9756 19.773 16.9756Z"
        fill="black" />
    <path
        d="M25.7926 15.7748C26.6104 15.7748 27.277 15.1094 27.277 14.29C27.277 13.4706 26.6118 12.8052 25.7926 12.8052C24.9735 12.8052 24.3082 13.4706 24.3082 14.29C24.3082 15.1094 24.9735 15.7748 25.7926 15.7748Z"
        fill="black" />
</svg>