<svg width="40" height="40" viewBox="0 0 40 40" fill="none" xmlns="http://www.w3.org/2000/svg">
    <path
        d="M19.7175 39.868C8.84483 39.868 0 31.0205 0 20.1447C0 9.26882 8.84483 0.421387 19.7175 0.421387C30.5901 0.421387 39.4349 9.26882 39.4349 20.1447C39.4349 31.0205 30.5901 39.868 19.7175 39.868ZM19.7175 1.76028C9.58368 1.76028 1.3385 10.0079 1.3385 20.1447C1.3385 30.2815 9.58368 38.5291 19.7175 38.5291C29.8513 38.5291 38.0964 30.2815 38.0964 20.1447C38.0964 10.0079 29.8513 1.76028 19.7175 1.76028Z"
        fill="black" />
    <path
        d="M24.7339 17.1559C26.1407 18.1651 27.8642 18.7589 29.7256 18.7589V15.1643C29.3733 15.1644 29.0219 15.1275 28.6773 15.0542V17.8837C26.816 17.8837 25.0928 17.2899 23.6856 16.2807V23.6163C23.6856 27.286 20.7214 30.2606 17.065 30.2606C15.7007 30.2606 14.4326 29.8467 13.3793 29.1368C14.5815 30.3705 16.2581 31.1358 18.113 31.1358C21.7696 31.1358 24.7341 28.1611 24.7341 24.4913V17.1559H24.7339ZM26.0271 13.5293C25.3081 12.741 24.836 11.7223 24.7339 10.5961V10.1338H23.7405C23.9906 11.5652 24.8435 12.7881 26.0271 13.5293ZM15.6919 26.3208C15.2902 25.7923 15.0732 25.1457 15.0741 24.4808C15.0741 22.8025 16.43 21.4416 18.1027 21.4416C18.4145 21.4416 18.7243 21.4895 19.0214 21.5841V17.9091C18.6742 17.8613 18.3238 17.8411 17.9736 17.8485V20.7089C17.6763 20.6143 17.3662 20.5663 17.0544 20.5666C15.3817 20.5666 14.0259 21.9273 14.0259 23.6058C14.0259 24.7927 14.7036 25.8203 15.6919 26.3208Z"
        fill="#FF004F" />
    <path
        d="M23.6856 16.2807C25.0928 17.2898 26.816 17.8836 28.6772 17.8836V15.0541C27.6383 14.832 26.7185 14.2872 26.027 13.5293C24.8433 12.788 23.9905 11.5651 23.7405 10.1338H21.1311V24.4912C21.1252 26.165 19.7717 27.5203 18.1025 27.5203C17.1189 27.5203 16.2451 27.0497 15.6917 26.3208C14.7034 25.8203 14.0257 24.7926 14.0257 23.6059C14.0257 21.9275 15.3815 20.5666 17.0542 20.5666C17.3747 20.5666 17.6836 20.6167 17.9734 20.709V17.8486C14.3812 17.923 11.4922 20.8686 11.4922 24.4913C11.4922 26.2997 12.2117 27.9391 13.3793 29.1369C14.4327 29.8467 15.7007 30.2607 17.065 30.2607C20.7215 30.2607 23.6856 27.2859 23.6856 23.6164V16.2807H23.6856Z"
        fill="black" />
    <path
        d="M28.6773 15.0542V14.2891C27.7404 14.2906 26.8219 14.0272 26.0271 13.5293C26.7307 14.3024 27.6573 14.8355 28.6773 15.0542ZM23.7405 10.1339C23.7166 9.99706 23.6983 9.85936 23.6856 9.72114V9.25879H20.0828V23.6163C20.077 25.2899 18.7236 26.6452 17.0543 26.6452C16.5642 26.6452 16.1015 26.5284 15.6917 26.321C16.2451 27.0498 17.119 27.5202 18.1026 27.5202C19.7716 27.5202 21.1253 26.1651 21.1311 24.4913V10.1339H23.7405ZM17.9736 17.8486V17.0342C17.6725 16.9929 17.369 16.9721 17.0651 16.9723C13.4084 16.9722 10.4441 19.947 10.4441 23.6163C10.4441 25.9168 11.6091 27.9442 13.3794 29.1368C12.2118 27.939 11.4924 26.2996 11.4924 24.4913C11.4924 20.8687 14.3813 17.9231 17.9736 17.8486Z"
        fill="#00F2EA" />
</svg>