<svg width="40" height="41" viewBox="0 0 40 41" fill="none" xmlns="http://www.w3.org/2000/svg">
    <path
        d="M19.8152 40.1732H19.7282C8.85018 40.1732 0 31.3204 0 20.4392V20.3521C0 9.47094 8.85018 0.618164 19.7282 0.618164H19.8152C30.6932 0.618164 39.5434 9.47094 39.5434 20.3521V20.4392C39.5434 31.3204 30.6932 40.1732 19.8152 40.1732ZM19.7282 1.95706C9.5877 1.95706 1.3385 10.2087 1.3385 20.3521V20.4392C1.3385 30.5827 9.5877 38.8343 19.7282 38.8343H19.8152C29.9557 38.8343 38.2049 30.5827 38.2049 20.4392V20.3521C38.2049 10.2087 29.9557 1.95706 19.8152 1.95706H19.7282Z"
        fill="black" />
    <path
        d="M23.4964 25.9848C18.6069 25.9848 14.6288 22.0042 14.6275 17.1132C14.6288 15.8734 15.6381 14.8652 16.8749 14.8652C17.002 14.8652 17.1278 14.8759 17.2483 14.8974C17.5133 14.9416 17.765 15.0313 17.9965 15.1665C18.03 15.1866 18.0527 15.2187 18.0581 15.2562L18.5747 18.5137C18.5814 18.5526 18.5694 18.59 18.544 18.6182C18.2589 18.9341 17.8948 19.1618 17.4892 19.2756L17.2938 19.3305L17.3674 19.5192C18.034 21.217 19.3912 22.5733 21.0898 23.2427L21.2785 23.3177L21.3334 23.1222C21.4472 22.7165 21.6747 22.3524 21.9906 22.0672C22.0134 22.0457 22.0441 22.035 22.0749 22.035C22.0816 22.035 22.0883 22.035 22.0964 22.0364L25.3529 22.5532C25.3917 22.5599 25.4239 22.5813 25.4439 22.6148C25.5778 22.8464 25.6675 23.0994 25.713 23.3645C25.7344 23.4824 25.7438 23.6069 25.7438 23.7368C25.7438 24.9752 24.7359 25.9834 23.4964 25.9848Z"
        fill="black" />
    <path
        d="M32.167 19.3225C31.9033 16.3421 30.538 13.5773 28.3228 11.5382C26.0942 9.48696 23.203 8.35693 20.1793 8.35693C13.543 8.35693 8.14353 13.758 8.14353 20.3963C8.14353 22.6242 8.75789 24.7946 9.92105 26.6851L7.32703 32.429L15.6324 31.5439C17.0767 32.1357 18.6053 32.4356 20.178 32.4356C20.5916 32.4356 21.0159 32.4142 21.4415 32.37C21.8163 32.3299 22.1951 32.271 22.5672 32.196C28.1247 31.0727 32.1817 26.1388 32.2138 20.4606V20.3963C32.2138 20.0348 32.1978 19.6733 32.1656 19.3238L32.167 19.3225ZM15.9523 29.0228L11.3573 29.5128L12.7292 26.4722L12.4548 26.104C12.4348 26.0772 12.4147 26.0504 12.3919 26.0197C11.2007 24.3741 10.5716 22.4301 10.5716 20.3976C10.5716 15.0983 14.8815 10.787 20.1793 10.787C25.1425 10.787 29.3494 14.6605 29.755 19.605C29.7764 19.8701 29.7884 20.1365 29.7884 20.399C29.7884 20.4739 29.7871 20.5476 29.7858 20.6266C29.684 25.0597 26.5881 28.8247 22.2567 29.7833C21.9261 29.8569 21.5874 29.9132 21.2501 29.9493C20.8994 29.9895 20.5394 30.0096 20.182 30.0096C18.9091 30.0096 17.6723 29.7632 16.5038 29.2759C16.374 29.2236 16.2468 29.1674 16.1277 29.1098L15.9537 29.0255L15.9523 29.0228Z"
        fill="black" />
</svg>