<svg width="40" height="41" viewBox="0 0 40 41" fill="none" xmlns="http://www.w3.org/2000/svg">
    <path
        d="M19.8152 40.1732H19.7282C8.85018 40.1732 0 31.3204 0 20.4392V20.3521C0 9.47094 8.85018 0.618164 19.7282 0.618164H19.8152C30.6932 0.618164 39.5434 9.47094 39.5434 20.3521V20.4392C39.5434 31.3204 30.6932 40.1732 19.8152 40.1732ZM19.7282 1.95706C9.5877 1.95706 1.3385 10.2087 1.3385 20.3521V20.4392C1.3385 30.5827 9.5877 38.8343 19.7282 38.8343H19.8152C29.9557 38.8343 38.2049 30.5827 38.2049 20.4392V20.3521C38.2049 10.2087 29.9557 1.95706 19.8152 1.95706H19.7282Z"
        fill="black" />
    <path
        d="M8.41835 9.93945L17.2284 21.7217L8.36346 31.3016H10.3592L18.1212 22.9147L24.392 31.3016H31.1823L21.877 18.8565L30.1289 9.93945H28.1331L20.9855 17.6636L15.2099 9.93945H8.41967H8.41835ZM11.3523 11.4096H14.4711L28.2456 29.8315H25.1269L11.3523 11.4096Z"
        fill="black" />
</svg>