<svg width="40" height="40" viewBox="0 0 40 40" fill="none" xmlns="http://www.w3.org/2000/svg">
    <path
        d="M19.7175 39.868C8.84483 39.868 0 31.0205 0 20.1447C0 9.26882 8.84483 0.421387 19.7175 0.421387C30.5901 0.421387 39.4349 9.26882 39.4349 20.1447C39.4349 31.0205 30.5901 39.868 19.7175 39.868ZM19.7175 1.76028C9.58368 1.76028 1.3385 10.0079 1.3385 20.1447C1.3385 30.2815 9.58368 38.5291 19.7175 38.5291C29.8513 38.5291 38.0964 30.2815 38.0964 20.1447C38.0964 10.0079 29.8513 1.76028 19.7175 1.76028Z"
        fill="black" />
    <path
        d="M31.7109 16.1963C31.561 14.749 31.2384 13.149 30.0512 12.3082C29.1316 11.6561 27.923 11.632 26.7946 11.6333C24.4094 11.6347 22.0228 11.6374 19.6376 11.6387C17.3434 11.6414 15.0492 11.6427 12.755 11.6454C11.7967 11.6467 10.8651 11.5718 9.97496 11.9868C9.21068 12.343 8.61237 13.0204 8.25231 13.7742C7.75305 14.8226 7.64865 16.0102 7.58842 17.1697C7.47732 19.2811 7.48937 21.3979 7.62188 23.508C7.71959 25.0478 7.96721 26.7495 9.15714 27.7309C10.2119 28.5998 11.7003 28.6427 13.0682 28.644C17.4103 28.6481 21.7538 28.6521 26.0972 28.6548C26.6541 28.6561 27.235 28.6454 27.8025 28.5838C28.9188 28.4633 29.9829 28.1433 30.7003 27.3159C31.4245 26.4817 31.6105 25.3209 31.7203 24.2217C31.988 21.5546 31.9853 18.8621 31.7109 16.1963ZM17.1266 23.8829V16.4052L23.5996 20.1434L17.1266 23.8829Z"
        fill="black" />
</svg>