<svg width="71" height="17" viewBox="0 0 71 17" fill="none" xmlns="http://www.w3.org/2000/svg">
<path d="M5.35526 10.1164C5.35526 9.92111 5.30643 9.74477 5.20877 9.58742C5.1111 9.42465 4.92391 9.27815 4.6472 9.14793C4.3759 9.01771 3.97439 8.89835 3.44267 8.78983C2.97605 8.68674 2.54741 8.56465 2.15675 8.42359C1.77152 8.27709 1.44055 8.10075 1.16384 7.89457C0.887117 7.68839 0.672799 7.44423 0.520877 7.16209C0.368955 6.87995 0.292993 6.5544 0.292993 6.18545C0.292993 5.82734 0.371667 5.48823 0.529015 5.16811C0.686363 4.84799 0.911534 4.56584 1.20453 4.32169C1.49752 4.07752 1.85291 3.88491 2.2707 3.74384C2.69391 3.60276 3.16595 3.53223 3.68683 3.53223C4.42474 3.53223 5.05685 3.65703 5.58315 3.90661C6.11487 4.15078 6.52181 4.48446 6.80395 4.90767C7.08609 5.32546 7.22716 5.7975 7.22716 6.3238H5.26574C5.26574 6.09049 5.20606 5.87346 5.08668 5.67271C4.97275 5.46653 4.79912 5.30104 4.56581 5.17625C4.33249 5.04603 4.0395 4.98092 3.68683 4.98092C3.35043 4.98092 3.071 5.03517 2.84855 5.14369C2.63151 5.24679 2.46874 5.38243 2.36022 5.55062C2.25714 5.71882 2.20559 5.90331 2.20559 6.10406C2.20559 6.25056 2.23272 6.38348 2.28697 6.50286C2.34665 6.61679 2.44432 6.72259 2.57996 6.82027C2.71561 6.91251 2.90008 6.99932 3.1334 7.08071C3.37213 7.16209 3.67055 7.24076 4.02866 7.31673C4.70145 7.45779 5.2793 7.63956 5.7622 7.86202C6.25052 8.07905 6.6249 8.36119 6.88534 8.70845C7.14578 9.05027 7.276 9.48433 7.276 10.0106C7.276 10.4013 7.1919 10.7594 7.0237 11.0849C6.86092 11.405 6.62218 11.6844 6.30749 11.9232C5.99279 12.1566 5.61569 12.3384 5.17621 12.4686C4.74214 12.5988 4.25382 12.6638 3.71125 12.6638C2.91366 12.6638 2.23814 12.5227 1.68471 12.2406C1.13128 11.9531 0.71078 11.5868 0.423212 11.1419C0.141071 10.6915 0 10.2249 0 9.74205H1.89631C1.91802 10.1056 2.0184 10.3959 2.19745 10.6129C2.38193 10.8245 2.60981 10.9792 2.88109 11.0768C3.15781 11.1691 3.44267 11.2151 3.73566 11.2151C4.08834 11.2151 4.38404 11.1691 4.62278 11.0768C4.86152 10.9792 5.04328 10.849 5.16807 10.6861C5.29287 10.518 5.35526 10.328 5.35526 10.1164Z" fill="black"/>
<path d="M10.9302 0V12.501H8.97693V0H10.9302ZM10.5884 7.77246L9.95357 7.76431C9.959 7.15662 10.0431 6.59506 10.2059 6.07961C10.3741 5.56416 10.6074 5.11653 10.9058 4.73673C11.2096 4.35149 11.5732 4.05578 11.9964 3.8496C12.4196 3.638 12.8889 3.53219 13.4044 3.53219C13.8385 3.53219 14.2291 3.59188 14.5764 3.71125C14.929 3.83061 15.2329 4.02323 15.4879 4.28909C15.7429 4.54953 15.9355 4.89135 16.0658 5.31457C16.2014 5.73235 16.2692 6.24238 16.2692 6.84464V12.501H14.2997V6.82837C14.2997 6.40516 14.2373 6.06875 14.1125 5.81917C13.9931 5.56958 13.8167 5.39053 13.5835 5.28201C13.3501 5.16807 13.0653 5.1111 12.7289 5.1111C12.3762 5.1111 12.0642 5.18164 11.7929 5.32271C11.527 5.46378 11.3046 5.6564 11.1256 5.90055C10.9465 6.14472 10.8108 6.42686 10.7186 6.74698C10.6318 7.0671 10.5884 7.40893 10.5884 7.77246Z" fill="black"/>
<path d="M17.8807 8.19571V8.00851C17.8807 7.37369 17.9729 6.785 18.1574 6.24242C18.3419 5.69442 18.6078 5.21966 18.955 4.81815C19.3077 4.41122 19.7363 4.09651 20.2409 3.87406C20.751 3.64617 21.3261 3.53223 21.9663 3.53223C22.612 3.53223 23.1871 3.64617 23.6917 3.87406C24.2018 4.09651 24.6331 4.41122 24.9858 4.81815C25.3384 5.21966 25.607 5.69442 25.7915 6.24242C25.976 6.785 26.0682 7.37369 26.0682 8.00851V8.19571C26.0682 8.83052 25.976 9.41922 25.7915 9.9618C25.607 10.5043 25.3384 10.9792 24.9858 11.3861C24.6331 11.7876 24.2045 12.1023 23.6999 12.3301C23.1952 12.5526 22.6228 12.6638 21.9826 12.6638C21.337 12.6638 20.7591 12.5526 20.2491 12.3301C19.7444 12.1023 19.3159 11.7876 18.9631 11.3861C18.6105 10.9792 18.3419 10.5043 18.1574 9.9618C17.9729 9.41922 17.8807 8.83052 17.8807 8.19571ZM19.8421 8.00851V8.19571C19.8421 8.59179 19.8828 8.96617 19.9642 9.31884C20.0456 9.67152 20.1731 9.98079 20.3467 10.2467C20.5203 10.5125 20.7428 10.7214 21.0141 10.8733C21.2854 11.0252 21.6082 11.1012 21.9826 11.1012C22.3461 11.1012 22.6608 11.0252 22.9267 10.8733C23.1979 10.7214 23.4205 10.5125 23.594 10.2467C23.7677 9.98079 23.8952 9.67152 23.9766 9.31884C24.0634 8.96617 24.1068 8.59179 24.1068 8.19571V8.00851C24.1068 7.61786 24.0634 7.2489 23.9766 6.90165C23.8952 6.54898 23.765 6.23699 23.5859 5.9657C23.4123 5.69442 23.1898 5.4828 22.9186 5.33089C22.6527 5.17354 22.3353 5.09486 21.9663 5.09486C21.5974 5.09486 21.2773 5.17354 21.006 5.33089C20.7401 5.4828 20.5203 5.69442 20.3467 5.9657C20.1731 6.23699 20.0456 6.54898 19.9642 6.90165C19.8828 7.2489 19.8421 7.61786 19.8421 8.00851Z" fill="black"/>
<path d="M29.6818 5.38786V15.8868H27.7203V3.69501H29.5272L29.6818 5.38786ZM35.4195 8.01665V8.18757C35.4195 8.82781 35.3436 9.42193 35.1916 9.96994C35.0451 10.5125 34.8254 10.9873 34.5324 11.3942C34.2448 11.7957 33.8894 12.1077 33.4662 12.3301C33.0431 12.5526 32.5547 12.6638 32.0013 12.6638C31.4533 12.6638 30.9731 12.5635 30.5607 12.3627C30.1538 12.1566 29.8093 11.8662 29.5272 11.4918C29.2449 11.1175 29.0171 10.678 28.8435 10.1734C28.6752 9.66338 28.5559 9.10452 28.4854 8.49684V7.8376C28.5559 7.19194 28.6752 6.60595 28.8435 6.07965C29.0171 5.55334 29.2449 5.10028 29.5272 4.72048C29.8093 4.34068 30.1538 4.04769 30.5607 3.8415C30.9677 3.63532 31.4424 3.53223 31.985 3.53223C32.5384 3.53223 33.0294 3.64075 33.4581 3.85777C33.8867 4.06939 34.2475 4.37323 34.5405 4.76931C34.8335 5.15997 35.0532 5.63202 35.1998 6.18545C35.3463 6.73345 35.4195 7.34386 35.4195 8.01665ZM33.4581 8.18757V8.01665C33.4581 7.60972 33.4201 7.23263 33.3441 6.88538C33.2682 6.53269 33.1488 6.22343 32.9861 5.95756C32.8233 5.6917 32.6144 5.48551 32.3594 5.33902C32.1098 5.1871 31.8087 5.11114 31.456 5.11114C31.1087 5.11114 30.8103 5.17082 30.5607 5.29019C30.3112 5.40413 30.1022 5.5642 29.9341 5.77037C29.7658 5.97655 29.6356 6.218 29.5434 6.49472C29.4511 6.766 29.386 7.06172 29.3481 7.38184V8.96074C29.4132 9.3514 29.5243 9.7095 29.6818 10.035C29.8391 10.3606 30.0616 10.621 30.3491 10.8164C30.6421 11.0063 31.0164 11.1012 31.4722 11.1012C31.8249 11.1012 32.126 11.0252 32.3756 10.8733C32.6252 10.7214 32.8287 10.5125 32.9861 10.2467C33.1488 9.97537 33.2682 9.66338 33.3441 9.31071C33.4201 8.95803 33.4581 8.58364 33.4581 8.18757Z" fill="black"/>
<path d="M39.1878 0V12.501H37.2183V0H39.1878Z" fill="black"/>
<path d="M43.4362 3.69494V12.501H41.4666V3.69494H43.4362ZM41.3364 1.38354C41.3364 1.08513 41.434 0.838258 41.6294 0.642929C41.8301 0.442174 42.1069 0.341797 42.4595 0.341797C42.8068 0.341797 43.0808 0.442174 43.2816 0.642929C43.4823 0.838258 43.5827 1.08513 43.5827 1.38354C43.5827 1.67655 43.4823 1.9207 43.2816 2.11603C43.0808 2.31136 42.8068 2.40903 42.4595 2.40903C42.1069 2.40903 41.8301 2.31136 41.6294 2.11603C41.434 1.9207 41.3364 1.67655 41.3364 1.38354Z" fill="#FF6B00"/>
<path d="M47.53 5.57504V12.5011H45.5686V3.69501H47.416L47.53 5.57504ZM47.1801 7.77249L46.5452 7.76435C46.5507 7.14039 46.6374 6.56797 46.8057 6.04709C46.9793 5.52621 47.218 5.07858 47.5219 4.7042C47.8312 4.32982 48.2001 4.04226 48.6288 3.8415C49.0573 3.63532 49.5349 3.53223 50.0612 3.53223C50.4843 3.53223 50.8669 3.59192 51.2087 3.71128C51.556 3.82523 51.8516 4.01241 52.0958 4.27285C52.3454 4.53329 52.5353 4.8724 52.6655 5.29019C52.7958 5.70255 52.8609 6.20987 52.8609 6.81212V12.5011H50.8913V6.80399C50.8913 6.38078 50.8289 6.04709 50.7041 5.80293C50.5848 5.55334 50.4084 5.377 50.1751 5.27391C49.9472 5.16539 49.6624 5.11114 49.3206 5.11114C48.9841 5.11114 48.683 5.18168 48.4172 5.32275C48.1513 5.46381 47.9261 5.65643 47.7416 5.90059C47.5625 6.14476 47.4242 6.42689 47.3266 6.74701C47.2288 7.06713 47.1801 7.40896 47.1801 7.77249Z" fill="black"/>
<path d="M56.8406 0V12.501H54.8711V0H56.8406ZM62.3098 3.69497L58.4765 7.94337L56.3767 10.092L55.864 8.43169L57.451 6.47027L59.9415 3.69497H62.3098ZM60.3647 12.501L57.508 8.36658L58.7451 6.99114L62.6354 12.501H60.3647Z" fill="black"/>
<path d="M66.1106 11.541L68.5034 3.69531H70.6032L67.071 13.8443C66.9896 14.0613 66.8838 14.2974 66.7536 14.5524C66.6234 14.8073 66.4525 15.0488 66.2408 15.2767C66.0347 15.51 65.7769 15.6972 65.4677 15.8382C65.1584 15.9848 64.784 16.058 64.3445 16.058C64.171 16.058 64.0027 16.0417 63.8399 16.0092C63.6826 15.982 63.5334 15.9522 63.3924 15.9196L63.3842 14.4222C63.4384 14.4276 63.5035 14.433 63.5795 14.4384C63.6609 14.4438 63.726 14.4465 63.7749 14.4465C64.1003 14.4465 64.3717 14.4058 64.5887 14.3244C64.8057 14.2485 64.9821 14.1237 65.1177 13.95C65.2588 13.7765 65.3782 13.5431 65.4759 13.2502L66.1106 11.541ZM64.7597 3.69531L66.8513 10.2877L67.2012 12.3549L65.842 12.7048L62.6436 3.69531H64.7597Z" fill="black"/>
</svg>
